<svg width="321" height="131" viewBox="0 0 321 131" fill="none" xmlns="http://www.w3.org/2000/svg">
<path d="M32.256 85.8H60.288V105H7.168V14.76H32.256V85.8ZM82.715 26.536C78.2777 26.536 74.6937 25.3413 71.963 22.952C69.3177 20.4773 67.995 17.4053 67.995 13.736C67.995 9.98133 69.3177 6.86666 71.963 4.392C74.6937 1.91733 78.2777 0.679993 82.715 0.679993C87.067 0.679993 90.5657 1.91733 93.211 4.392C95.9417 6.86666 97.307 9.98133 97.307 13.736C97.307 17.4053 95.9417 20.4773 93.211 22.952C90.5657 25.3413 87.067 26.536 82.715 26.536ZM95.131 33.192V105H70.043V33.192H95.131ZM134.506 45.864C137.322 41.768 140.735 38.5253 144.746 36.136C148.757 33.7467 153.066 32.552 157.674 32.552V59.304H150.634C145.173 59.304 141.119 60.3707 138.474 62.504C135.829 64.6373 134.506 68.3493 134.506 73.64V105H109.418V33.192H134.506V45.864ZM179.34 26.536C174.903 26.536 171.319 25.3413 168.588 22.952C165.943 20.4773 164.62 17.4053 164.62 13.736C164.62 9.98133 165.943 6.86666 168.588 4.392C171.319 1.91733 174.903 0.679993 179.34 0.679993C183.692 0.679993 187.191 1.91733 189.836 4.392C192.567 6.86666 193.932 9.98133 193.932 13.736C193.932 17.4053 192.567 20.4773 189.836 22.952C187.191 25.3413 183.692 26.536 179.34 26.536ZM191.756 33.192V105H166.668V33.192H191.756ZM250.971 105L231.131 75.56V105H206.043V10.28H231.131V61.352L250.971 33.192H281.051L252.763 69.288L281.563 105H250.971Z" fill="#D62828"/>
<path d="M246 43L314.416 130H177.584L246 43Z" fill="#D62828"/>
</svg>
